HIERARCHY
ROOT Hips
{
    OFFSET 11.995140075683594 80.53943634033203 -16.20987319946289
    CHANNELS 6 Xposition Yposition Zposition Zrotation Xrotation Yrotation
    JOINT RightUpLeg
    {
        OFFSET -11.995140075683594 0.0 0.0
        CHANNELS 3 Zrotation Xrotation Yrotation
        JOINT RightLeg
        {
            OFFSET 0.0 -40.01475524902344 0.0
            CHANNELS 3 Zrotation Xrotation Yrotation
            JOINT RightFoot
            {
                OFFSET 0.0 -40.524681091308594 0.0
                CHANNELS 3 Zrotation Xrotation Yrotation
                End Site RightFoot_End
                {
                    OFFSET 0.0 0.0 16.20987319946289
                }
            }
        }
    }
    JOINT LeftUpLeg
    {
        OFFSET 11.995140075683594 0.0 0.0
        CHANNELS 3 Zrotation Xrotation Yrotation
        JOINT LeftLeg
        {
            OFFSET 0.0 -40.01475524902344 0.0
            CHANNELS 3 Zrotation Xrotation Yrotation
            JOINT LeftFoot
            {
                OFFSET 0.0 -40.524681091308594 0.0
                CHANNELS 3 Zrotation Xrotation Yrotation
                End Site LeftFoot_End
                {
                    OFFSET 0.0 0.0 16.20987319946289
                }
            }
        }
    }
    JOINT Spine
    {
        OFFSET 0.0 23.084762573242188 0.0
        CHANNELS 3 Zrotation Xrotation Yrotation
        JOINT Spine3
        {
            OFFSET 0.0 25.396142959594727 0.0
            CHANNELS 3 Zrotation Xrotation Yrotation
            JOINT Neck
            {
                OFFSET 0.0 19.330669403076172 0.0
                CHANNELS 3 Zrotation Xrotation Yrotation
                End Site Head
                {
                    OFFSET 0.0 7.7322678565979 0.0
                }
            }
            JOINT LeftArm
            {
                OFFSET 17.908926010131836 0.0 0.0
                CHANNELS 3 Zrotation Xrotation Yrotation
                JOINT LeftForeArm
                {
                    OFFSET 30.562816619873047 0.0 0.0
                    CHANNELS 3 Zrotation Xrotation Yrotation
                    JOINT LeftHand
                    {
                        OFFSET 26.666568756103516 0.0 0.0
                        CHANNELS 3 Zrotation Xrotation Yrotation
                        End Site LeftWristEndSite
                        {
                            OFFSET 10.666627883911133 0.0 0.0
                        }
                    }
                }
            }
            JOINT RightArm
            {
                OFFSET -17.908926010131836 0.0 0.0
                CHANNELS 3 Zrotation Xrotation Yrotation
                JOINT RightForeArm
                {
                    OFFSET -30.562816619873047 0.0 0.0
                    CHANNELS 3 Zrotation Xrotation Yrotation
                    JOINT RightHand
                    {
                        OFFSET -26.666568756103516 0.0 0.0
                        CHANNELS 3 Zrotation Xrotation Yrotation
                        End Site RightWristEndSite
                        {
                            OFFSET -10.666627883911133 0.0 0.0
                        }
                    }
                }
            }
        }
    }
}
MOTION
Frames: 6
Frame Time: 0.03333333333333333
-0.0 85.70332336425781 0.0 1.9619076188274147 -1.0562235175429686 -35.1842225557868 -11.764307901424084 5.728992086214806 0.2324440373803483 0.2231313096603428 8.977807380552077 2.049864996195316 -7.951386703658792e-16 -7.58640144977371e-33 1.0933156717530838e-15 4.654425268938933 11.914876279649011 0.250630279490566 0.5075019210991544 6.837417271708045 -0.540260883916349 -1.5902773407317582e-15 7.951386703658791e-16 9.939233379573488e-16 -1.3040759450334156 7.226757585207031 0.29669921335892985 -1.4787322998026252e-07 -5.66010915509321e-07 9.401808975856014 -1.069249875498852 -14.981469842758043 3.0092763226288124 -1.5143601062159613 -20.616854323080812 79.83923672123458 -143.96464513389668 -2.0948648621876816e-06 -2.454696957246702e-06 -4.4139062980501586e-32 -7.951386703658794e-16 -6.361109362927035e-15 9.063709872793886 -35.069517829430445 -71.62890735598312 127.90145181720693 5.353304018229579e-07 -1.995367792453065e-06 1.590277340731758e-15 1.590277340731758e-15 -2.2069531490250793e-32
-0.0 85.70332336425781 0.0 2.0765316559394558 -1.1583479911405596 -36.20330570991656 -12.343294297542155 5.251933696641625 0.30698025996930595 0.5412288297901181 8.743272846302819 2.0956787802531474 -1.7241821476758432e-33 -1.9878466759146977e-16 -9.939233379573488e-16 4.4204141292447225 11.294858584643404 0.32387838999621793 0.08911903465586511 8.101027682135427 -0.48962969250625354 1.590277340731758e-15 -4.4139062980501586e-32 -3.180554681463516e-15 -1.4281225109338864 7.262784476108965 0.36230469202972626 5.933743845022234e-08 1.5174610009475932e-06 10.006095780584708 -0.7552471492255026 -15.009586433675011 3.3050404261756947 -1.486639195349847 -25.885012282899876 81.10528743059707 -138.87587648287203 -1.1592797340805232e-06 1.8513714624418213e-06 0.0 0.0 6.3611093629270335e-15 9.975623865507723 -39.3982385177735 -71.75948234896688 123.71856695074769 2.2888553019423802e-06 2.437491588457924e-07 0.0 -1.5902773407317584e-15 0.0
-0.0 85.70332336425781 0.0 2.047159106881056 -1.0402354628490107 -39.5819299862869 -12.918622078867275 3.325709526278017 0.4654644428897165 0.9197845913240873 10.996000299095389 2.6753248279735367 -3.975693351829397e-16 -1.9878466759146985e-16 3.1805546814635176e-15 4.022295118882696 11.90209078315723 -0.12030637804552913 -1.2244744714224018 8.491327704080023 -0.18314047279885853 0.0 0.0 1.5902773407317582e-15 -1.751255517596837 7.089831889258497 0.4236106227021926 2.0908185130048095e-07 -1.9346044977832238e-07 12.156864485798865 -0.8555018046737406 -14.255590802173492 2.2978448866662995 -1.4373432401643431 -37.93246983723506 83.44256559708613 -125.50387120712395 1.9267204136120164e-06 2.056100317233283e-06 0.0 1.5902773407317584e-15 0.0 16.713065213202952 -51.66006237478374 -66.38915273569991 109.0873551107618 -8.222213071949701e-07 1.456643600661503e-06 1.5902773407317588e-15 -1.5902773407317588e-15 2.2069531490250793e-32
-0.0 85.70332336425781 0.0 1.6055697927317498 -0.9755855571407778 -42.10581068353702 -13.355312229051506 2.993324324442312 0.7252667935094199 1.7784578783132736 11.314111926067907 2.77246516440916 1.1927080055488192e-15 3.1805546814635176e-15 -8.945310041616142e-16 4.05699530003929 13.522338405582467 -0.2701580012139134 -1.5094541216317503 6.994658424816202 -0.009351553572907718 1.5902773407317582e-15 -7.951386703658791e-16 1.5902773407317582e-15 -2.053339003922975 7.060761709970559 0.5458401889990625 -1.1184449250341146e-07 1.9602395683097427e-07 13.58077186603943 0.10167520655760504 -14.115528067693482 3.2527546688631914 -1.830167524019678 -44.438183674351755 83.51123243611161 -117.76461946864582 -2.4480975307037646e-06 -1.4685741130589762e-06 0.0 0.0 0.0 25.692297907749637 -59.048624890746105 -58.03014635512008 99.28874301179964 -2.727318279302024e-06 4.549786329297056e-06 0.0 0.0 0.0
-0.0 85.70332336425781 0.0 1.867112489165168 -1.0856635056070107 -42.96207659630671 -14.013392484081422 2.449362882264418 0.7548921904794151 2.4315697917563996 11.627736138026906 2.924710607693545 0.0 0.0 1.4908850069360234e-15 3.4571423494658045 13.976402137949341 -0.15792173210268814 -1.6411212895021565 5.335288579153325 0.10150734657989285 -1.590277340731758e-15 -1.6552148617688095e-32 1.1927080055488184e-15 -2.137575918164859 6.991082987190384 0.5991126949628464 -4.1506778567321923e-07 -6.314989353001547e-07 14.307953124254329 -0.12482384950222002 -14.00477916815369 4.435199691562584 -1.8902716267783592 -46.72661847365795 83.59756993373651 -114.5526387571587 -2.6186893270482486e-06 4.6437026519859045e-07 0.0 0.0 0.0 26.880087308846225 -60.57466650997894 -56.937811504968664 97.33176275837505 1.1059295507220887e-06 1.1582737539397769e-06 0.0 1.5902773407317584e-15 0.0
-0.0 85.70332336425781 0.0 1.6434963608001385 -1.1319225088093556 -44.115943206088296 -14.738054651248286 2.01666580711345 0.8881313825457163 4.11995408459589 11.41157341038789 2.5974663979771777 0.0 0.0 -4.472655020808071e-16 3.7034859253143186 15.390382240213244 -0.48128274002083227 -2.165276235881867 3.338939092847374 0.08007307291436004 -1.5902773407317584e-15 7.951386703658791e-16 7.355032700884382e-15 -2.29168568782393 7.116948324776268 0.6033603251320089 -2.8587437415980694e-07 -8.843283853103774e-07 15.212786195635445 -0.314894880827885 -13.481437473815001 3.6244233906271695 -4.796747050442836 -58.91464461209009 81.30091855902134 -101.39547613699906 3.4411660633894464e-07 1.7088326497434612e-06 0.0 0.0 0.0 42.0813146598854 -67.12633569280456 -42.71654577138279 88.20285621156037 3.71211248149187e-07 -1.0534486389248727e-06 -1.5902773407317584e-15 -1.5902773407317584e-15 -2.2069531490250793e-32
